#N canvas 1057 537 450 300 12;
#X obj 222 239 dac~;
#X obj 209 107 osc~ 440;
#X obj 305 106 noise~;
#X obj 80 24 vsl 15 128 0 1 0 0 empty empty empty 0 -9 0 10 -262144
-1 -1 0 1;
#X floatatom 76 163 5 0 0 0 - - -;
#X msg 75 220 mix \$1;
#X obj 250 181 rp_xfader~;
#X connect 1 0 6 0;
#X connect 2 0 6 1;
#X connect 3 0 4 0;
#X connect 4 0 5 0;
#X connect 5 0 6 0;
#X connect 6 0 0 0;
#X connect 6 0 0 1;
