#N canvas 1764 303 1234 697 12;
#X obj 404 282 rp_hold~;
#X obj 294 279 rp_phasor~;
#X obj 386 454 *~;
#X obj 393 15 inlet~, f 17;
#X obj 387 569 outlet~;
#X obj 649 17 inlet;
#X obj 387 521 rp_xfader~;
#X obj 294 345 rp_additive~;
#X msg 129 136 skip \$1;
#X msg 197 134 min_length \$1;
#X msg 384 211 dc \$1;
#X msg 650 423 mix \$1;
#X msg 551 205 thresh \$1;
#X msg 632 204 boost \$1;
#X msg 995 242 harm \$1 \$2;
#X obj 589 479 rp_delay~ 2048;
#X obj 292 175 rp_zerox~ 2048;
#X obj 392 71 rp_delay~ 2048;
#X msg 488 206 gate \$1;
#X obj 651 54 route skip min_length dc switch mix gate thresh boost
harm;
#X connect 0 0 2 1;
#X connect 1 0 7 0;
#X connect 2 0 6 0;
#X connect 3 0 17 0;
#X connect 5 0 19 0;
#X connect 6 0 4 0;
#X connect 7 0 2 0;
#X connect 8 0 16 0;
#X connect 9 0 16 0;
#X connect 10 0 1 0;
#X connect 11 0 6 0;
#X connect 12 0 0 0;
#X connect 13 0 0 0;
#X connect 14 0 7 0;
#X connect 15 0 6 1;
#X connect 16 0 1 0;
#X connect 16 0 0 0;
#X connect 17 0 16 0;
#X connect 17 0 15 0;
#X connect 18 0 0 0;
#X connect 19 0 8 0;
#X connect 19 1 9 0;
#X connect 19 2 10 0;
#X connect 19 4 11 0;
#X connect 19 5 18 0;
#X connect 19 6 12 0;
#X connect 19 7 13 0;
#X connect 19 8 14 0;
