#N canvas 222 572 1234 697 12;
#X obj 404 282 rp_hold~;
#X obj 290 227 rp_phasor~;
#X obj 381 449 *~;
#X obj 410 55 inlet~, f 17;
#X obj 383 563 outlet~;
#X obj 649 17 inlet;
#X text 168 173 detect zerox;
#X text 19 265 generate phasor based on impulse;
#X text 418 244 hold value of impulse;
#X obj 383 517 rp_xfader~;
#X obj 289 340 rp_additive~;
#X obj 159 339 rp_wintp~;
#X obj 158 419 *~;
#X msg 649 112 skip \$1;
#X msg 705 139 min_length \$1;
#X msg 759 170 dc \$1;
#X obj 819 261 == 1;
#X obj 778 261 == 2;
#X obj 288 419 *~ 1;
#X msg 827 178 mix \$1;
#X msg 871 104 thresh \$1;
#X msg 915 132 boost \$1;
#X msg 1001 281 harm \$1 \$2;
#X obj 913 500 outlet~;
#X obj 1055 483 outlet~;
#X obj 805 504 outlet~;
#X obj 575 419 rp_delay~ 2048;
#X obj 292 175 rp_zerox~ 2048;
#X obj 409 111 rp_delay~ 2048;
#X obj 651 54 route skip min_length dc switch mix gate thresh boost
waveform harm;
#X msg 807 104 gate \$1;
#X obj 1142 217 outlet~;
#X obj 905 444 rp_delay~ 2048;
#X floatatom 333 274 5 0 0 0 - - -;
#X connect 0 0 2 1;
#X connect 0 0 24 0;
#X connect 1 0 11 0;
#X connect 1 0 10 0;
#X connect 2 0 9 0;
#X connect 3 0 28 0;
#X connect 5 0 29 0;
#X connect 9 0 4 0;
#X connect 10 0 18 0;
#X connect 11 0 12 0;
#X connect 12 0 2 0;
#X connect 13 0 27 0;
#X connect 14 0 27 0;
#X connect 15 0 1 0;
#X connect 16 0 18 1;
#X connect 17 0 12 1;
#X connect 18 0 2 0;
#X connect 19 0 9 0;
#X connect 20 0 0 0;
#X connect 21 0 0 0;
#X connect 22 0 10 0;
#X connect 26 0 9 1;
#X connect 27 0 1 0;
#X connect 27 0 0 0;
#X connect 27 0 32 0;
#X connect 28 0 27 0;
#X connect 28 0 26 0;
#X connect 28 0 31 0;
#X connect 29 0 13 0;
#X connect 29 1 14 0;
#X connect 29 2 15 0;
#X connect 29 3 16 0;
#X connect 29 3 17 0;
#X connect 29 4 19 0;
#X connect 29 5 30 0;
#X connect 29 6 20 0;
#X connect 29 7 21 0;
#X connect 29 8 11 0;
#X connect 29 9 22 0;
#X connect 30 0 0 0;
#X connect 32 0 23 0;
